<svg width="900" height="720" viewBox="0 0 900 720" fill="none" xmlns="http://www.w3.org/2000/svg">
  <rect width="900" height="720" rx="48" fill="#0F172A"/>
  <rect x="54" y="58" width="792" height="604" rx="34" fill="#111C31"/>
  <rect x="94" y="112" width="712" height="112" rx="28" fill="#F8FAFC"/>
  <rect x="126" y="146" width="118" height="18" rx="9" fill="#EA580C"/>
  <rect x="126" y="182" width="310" height="22" rx="11" fill="#0F172A"/>
  <rect x="454" y="150" width="320" height="36" rx="18" fill="#E2E8F0"/>
  <rect x="94" y="268" width="164" height="144" rx="26" fill="#1E293B"/>
  <rect x="278" y="268" width="164" height="144" rx="26" fill="#1E293B"/>
  <rect x="462" y="268" width="164" height="144" rx="26" fill="#1E293B"/>
  <rect x="646" y="268" width="164" height="144" rx="26" fill="#1E293B"/>
  <rect x="122" y="300" width="72" height="16" rx="8" fill="#FB923C"/>
  <rect x="306" y="300" width="72" height="16" rx="8" fill="#FB923C"/>
  <rect x="490" y="300" width="72" height="16" rx="8" fill="#FB923C"/>
  <rect x="674" y="300" width="72" height="16" rx="8" fill="#FB923C"/>
  <rect x="122" y="334" width="102" height="24" rx="12" fill="#F8FAFC"/>
  <rect x="306" y="334" width="104" height="24" rx="12" fill="#F8FAFC"/>
  <rect x="490" y="334" width="104" height="24" rx="12" fill="#F8FAFC"/>
  <rect x="674" y="334" width="98" height="24" rx="12" fill="#F8FAFC"/>
  <rect x="122" y="374" width="98" height="14" rx="7" fill="#64748B"/>
  <rect x="306" y="374" width="102" height="14" rx="7" fill="#64748B"/>
  <rect x="490" y="374" width="104" height="14" rx="7" fill="#64748B"/>
  <rect x="674" y="374" width="100" height="14" rx="7" fill="#64748B"/>
  <path d="M176 430C176 485.228 220.772 530 276 530H622C677.228 530 722 574.772 722 630" stroke="#FB923C" stroke-width="12" stroke-linecap="round" stroke-dasharray="12 18"/>
  <rect x="94" y="560" width="712" height="62" rx="22" fill="#F8FAFC"/>
  <rect x="128" y="584" width="164" height="14" rx="7" fill="#0F172A"/>
  <rect x="328" y="584" width="118" height="14" rx="7" fill="#94A3B8"/>
  <rect x="480" y="584" width="128" height="14" rx="7" fill="#94A3B8"/>
  <rect x="642" y="576" width="130" height="28" rx="14" fill="#EA580C"/>
</svg>
